<?xml version="1.0" encoding="utf-8"?>
<!-- Generator: Adobe Illustrator 19.2.0, SVG Export Plug-In . SVG Version: 6.00 Build 0)  -->
<svg version="1.1" id="Layer_1" xmlns="http://www.w3.org/2000/svg" xmlns:xlink="http://www.w3.org/1999/xlink" x="0px" y="0px"
	 viewBox="0 0 496 496" style="enable-background:new 0 0 496 496;" xml:space="preserve">
<style type="text/css">
	.st0{fill:#FFFFFF;}
</style>
<g>
	<g>
		<path class="st0" d="M480,248c0,88.2-71.8,160-160,160c-46.5,0-88.3-20-117.5-51.8C229.4,373.9,264.1,384,304,384
			c50.1,0,83.4-24.6,84.8-25.6l-9.6-12.8c-0.3,0.2-30.7,22.4-75.2,22.4c-33.4,0-62.4-7.3-85.6-20.3c9.4,2.8,19.3,4.3,29.6,4.3
			c97,0,176-79,176-176S345,0,248,0v16c88.2,0,160,71.8,160,160c0,46.5-20,88.3-51.8,117.5C373.9,266.6,384,231.9,384,192
			c0-50.1-24.6-83.4-25.6-84.8l-12.8,9.6c0.2,0.3,22.4,30.7,22.4,75.2c0,33.4-7.3,62.4-20.3,85.6c2.8-9.4,4.3-19.3,4.3-29.6
			c0-97-79-176-176-176S0,151,0,248h16c0-88.2,71.8-160,160-160c46.5,0,88.3,20,117.5,51.8C266.6,122.1,231.9,112,192,112
			c-50.1,0-83.4,24.6-84.8,25.6l9.6,12.8c0.3-0.2,30.7-22.4,75.2-22.4c33.4,0,62.4,7.3,85.6,20.3c-9.4-2.8-19.3-4.3-29.6-4.3
			c-97,0-176,79-176,176s79,176,176,176v-16c-88.2,0-160-71.8-160-160c0-46.5,20-88.3,51.8-117.5C122.1,229.4,112,264.1,112,304
			c0,50.1,24.6,83.4,25.6,84.8l12.8-9.6c-0.2-0.3-22.4-30.7-22.4-75.2c0-33.4,7.3-62.4,20.3-85.6c-2.8,9.4-4.3,19.3-4.3,29.6
			c0,97,79,176,176,176s176-79,176-176H480z M160.5,257c-0.2-3-0.5-5.9-0.5-9c0-45.5,34.7-83,79-87.5c3-0.2,5.9-0.5,9-0.5
			c45.5,0,83,34.7,87.5,79c0.2,3,0.5,5.9,0.5,9c0,45.5-34.7,83-79,87.5c-3,0.2-5.9,0.5-9,0.5C202.5,336,165,301.3,160.5,257z"/>
	</g>
</g>
</svg>
