<?xml version="1.0" encoding="utf-8"?>
<!-- Generator: Adobe Illustrator 19.2.0, SVG Export Plug-In . SVG Version: 6.00 Build 0)  -->
<svg version="1.1" id="Layer_1" xmlns="http://www.w3.org/2000/svg" xmlns:xlink="http://www.w3.org/1999/xlink" x="0px" y="0px"
	 viewBox="0 0 496 496" style="enable-background:new 0 0 496 496;" xml:space="preserve">
<style type="text/css">
	.st0{fill:#FFFFFF;}
</style>
<g>
	<g>
		<g>
			<path class="st0" d="M414,177.1c-10.8-63.9-65.8-111.5-130.9-113C265.9,34.3,234.5,16,200,16c-40.9,0-77.2,26.1-90.5,64.3
				c-20.8-2.1-40.2,7.5-51.6,24.1C25.1,107.4,0,134.6,0,168c0,20.1,9.4,38.6,25,50.6C9.6,234.5,0,256.1,0,280c0,48.5,39.5,88,88,88
				h312c52.9,0,96-43.1,96-96C496,224.4,460.5,183.9,414,177.1z M16,168c0-26.1,20.5-47.2,46.6-47.9l4.5-0.1l2.2-3.9
				C76.5,103.7,89.8,96,104,96c3,0,6,0.4,9.2,1.1l7.6,1.8l2-7.5c9.3-35,41.1-59.4,77.2-59.4c25.9,0,49.6,12.4,64.5,33
				c-53.5,6.1-98.6,43.2-114.4,95.3c-26.7-2.4-51.5,10.3-65.9,31.8c-17.3,0.7-33.2,6.5-46.6,15.9C24.2,199.1,16,184.2,16,168z
				 M400,352H88c-39.7,0-72-32.3-72-72s32.3-72,71.7-72l5.5,0l2.3-4c10-17.3,28.6-28,48.5-28c3.4,0,6.9,0.3,10.4,1l7.4,1.4l1.8-7.3
				C177,117.5,224.8,80,280,80c60.5,0,111.7,45.3,119,105.3l0.6,4.6c0.3,3.3,0.4,6.7,0.4,10.1c0,66.2-53.8,120-120,120v16
				c75,0,136-61,136-136c0-2.1-0.2-4.2-0.3-6.3c36.7,7.4,64.3,40.1,64.3,78.3C480,316.1,444.1,352,400,352z"/>
			<path class="st0" d="M128,384.5l-27.4,45.7c-3,5-4.6,10.7-4.6,16.5v1.4c0,17.6,14.4,32,32,32s32-14.4,32-32v-1.4
				c0-5.8-1.6-11.5-4.6-16.5L128,384.5z M144,448c0,8.8-7.2,16-16,16s-16-7.2-16-16v-1.4c0-2.9,0.8-5.8,2.3-8.2l13.7-22.9l13.7,22.9
				c1.5,2.5,2.3,5.4,2.3,8.2V448z"/>
			<path class="st0" d="M208,384.5l-27.4,45.7c-3,5-4.6,10.7-4.6,16.5v1.4c0,17.6,14.4,32,32,32s32-14.4,32-32v-1.4
				c0-5.8-1.6-11.5-4.6-16.5L208,384.5z M224,448c0,8.8-7.2,16-16,16s-16-7.2-16-16v-1.4c0-2.9,0.8-5.8,2.3-8.2l13.7-22.9l13.7,22.9
				c1.5,2.5,2.3,5.4,2.3,8.2V448z"/>
			<path class="st0" d="M288,384.5l-27.4,45.7c-3,5-4.6,10.7-4.6,16.5v1.4c0,17.6,14.4,32,32,32s32-14.4,32-32v-1.4
				c0-5.8-1.6-11.5-4.6-16.5L288,384.5z M304,448c0,8.8-7.2,16-16,16s-16-7.2-16-16v-1.4c0-2.9,0.8-5.8,2.3-8.2l13.7-22.9l13.7,22.9
				c1.5,2.5,2.3,5.4,2.3,8.2V448z"/>
			<path class="st0" d="M368,384.5l-27.4,45.7c-3,5-4.6,10.7-4.6,16.5v1.4c0,17.6,14.4,32,32,32s32-14.4,32-32v-1.4
				c0-5.8-1.6-11.5-4.6-16.5L368,384.5z M384,448c0,8.8-7.2,16-16,16s-16-7.2-16-16v-1.4c0-2.9,0.8-5.8,2.3-8.2l13.7-22.9l13.7,22.9
				c1.5,2.5,2.3,5.4,2.3,8.2V448z"/>
		</g>
	</g>
</g>
</svg>
