<?xml version="1.0" encoding="utf-8"?>
<!-- Generator: Adobe Illustrator 19.2.0, SVG Export Plug-In . SVG Version: 6.00 Build 0)  -->
<svg version="1.1" id="Layer_1" xmlns="http://www.w3.org/2000/svg" xmlns:xlink="http://www.w3.org/1999/xlink" x="0px" y="0px"
	 viewBox="0 0 496 496" style="enable-background:new 0 0 496 496;" xml:space="preserve">
<style type="text/css">
	.st0{fill:#FFFFFF;}
</style>
<g>
	<g>
		<g>
			<path class="st0" d="M414,169.1c-10.8-63.9-65.8-111.5-130.9-113C265.9,26.3,234.5,8,200,8c-40.9,0-77.2,26.1-90.5,64.3
				c-20.7-2.2-40.2,7.5-51.6,24.1C25.1,99.4,0,126.6,0,160c0,20.1,9.4,38.6,25,50.6C9.6,226.5,0,248.1,0,272c0,48.5,39.5,88,88,88
				h312c52.9,0,96-43.1,96-96C496,216.4,460.5,175.9,414,169.1z M16,160c0-26.1,20.5-47.2,46.6-47.9l4.5-0.1l2.2-3.9
				c8.6-15,25.7-23.2,43.9-19l7.6,1.8l2-7.5c9.3-35,41.1-59.4,77.2-59.4c25.9,0,49.6,12.4,64.5,33c-53.5,6.1-98.6,43.2-114.4,95.3
				c-2-0.2-4.1-0.3-6.1-0.3c-24,0-46.6,12.2-59.9,32.1c-17.3,0.8-33.2,6.5-46.6,15.9C24.2,191.1,16,176.2,16,160z M400,344H88
				c-39.7,0-72-32.3-72-72c0-39.7,32.3-72,71.7-72l5.5,0l2.3-4c10-17.3,28.6-28,48.5-28c3.4,0,6.9,0.3,10.4,1l7.4,1.4l1.8-7.3
				C177,109.4,224.8,72,280,72c60.5,0,111.7,45.3,119,105.3l0.6,4.6c0.3,3.3,0.4,6.7,0.4,10.1c0,66.2-53.8,120-120,120v16
				c75,0,136-61,136-136c0-2.1-0.2-4.2-0.3-6.3c36.7,7.4,64.3,40.1,64.3,78.3C480,308.1,444.1,344,400,344z"/>
			<polygon class="st0" points="180.4,400.8 160,411.1 160,392 144,392 144,411.1 123.6,400.8 116.4,415.2 134.1,424 116.4,432.8 
				123.6,447.2 144,436.9 144,456 160,456 160,436.9 180.4,447.2 187.6,432.8 169.9,424 187.6,415.2 			"/>
			<polygon class="st0" points="372.4,400.8 352,411.1 352,392 336,392 336,411.1 315.6,400.8 308.4,415.2 326.1,424 308.4,432.8 
				315.6,447.2 336,436.9 336,456 352,456 352,436.9 372.4,447.2 379.6,432.8 361.9,424 379.6,415.2 			"/>
			<polygon class="st0" points="276.4,432.8 256,443.1 256,424 240,424 240,443.1 219.6,432.8 212.4,447.2 230.1,456 212.4,464.8 
				219.6,479.2 240,468.9 240,488 256,488 256,468.9 276.4,479.2 283.6,464.8 265.9,456 283.6,447.2 			"/>
		</g>
	</g>
</g>
</svg>
