<?xml version="1.0" encoding="utf-8"?>
<!-- Generator: Adobe Illustrator 19.2.0, SVG Export Plug-In . SVG Version: 6.00 Build 0)  -->
<svg version="1.1" id="Layer_1" xmlns="http://www.w3.org/2000/svg" xmlns:xlink="http://www.w3.org/1999/xlink" x="0px" y="0px"
	 viewBox="0 0 496 496" style="enable-background:new 0 0 496 496;" xml:space="preserve">
<style type="text/css">
	.st0{fill:#FFFFFF;}
</style>
<g>
	<g>
		<g>
			<path class="st0" d="M414,169.1c-10.8-63.9-65.8-111.5-130.9-113C265.9,26.3,234.5,8,200,8c-40.9,0-77.2,26.1-90.5,64.3
				c-20.7-2.1-40.2,7.5-51.6,24.1C25.1,99.4,0,126.6,0,160c0,20.1,9.4,38.6,25,50.6C9.6,226.5,0,248.1,0,272c0,48.5,39.5,88,88,88
				v-16c-39.7,0-72-32.3-72-72s32.3-72,71.7-72l5.5,0l2.3-4c10-17.3,28.6-28,48.5-28c3.4,0,6.9,0.3,10.4,1l7.4,1.4l1.8-7.3
				C177,109.5,224.8,72,280,72c60.5,0,111.7,45.3,119,105.3l0.6,4.6c0.3,3.3,0.4,6.7,0.4,10.1c0,66.2-53.8,120-120,120v16
				c75,0,136-61,136-136c0-2.1-0.2-4.2-0.3-6.3c36.7,7.4,64.3,40.1,64.3,78.3c0,44.1-35.9,80-80,80h-8v16h8c52.9,0,96-43.1,96-96
				C496,216.4,460.5,175.9,414,169.1z M150,152.3c-26.7-2.3-51.5,10.3-65.9,31.8c-17.3,0.7-33.2,6.5-46.6,15.9
				C24.2,191.1,16,176.2,16,160c0-26.1,20.5-47.2,46.6-47.9l4.5-0.1l2.2-3.9C76.5,95.7,89.8,88,104,88c3,0,6,0.4,9.2,1.1l7.6,1.8
				l2-7.5c9.3-35,41.1-59.4,77.2-59.4c25.9,0,49.6,12.4,64.5,33C211,63.1,165.9,100.2,150,152.3z"/>
			<rect x="112" y="344" class="st0" width="16" height="16"/>
			<rect x="160" y="344" class="st0" width="16" height="16"/>
			<rect x="208" y="344" class="st0" width="16" height="16"/>
			<rect x="256" y="344" class="st0" width="16" height="16"/>
			<rect x="304" y="344" class="st0" width="16" height="16"/>
			<rect x="352" y="344" class="st0" width="16" height="16"/>
			<rect x="112" y="376" class="st0" width="16" height="16"/>
			<rect x="160" y="376" class="st0" width="16" height="16"/>
			<rect x="208" y="376" class="st0" width="16" height="16"/>
			<rect x="256" y="376" class="st0" width="16" height="16"/>
			<rect x="304" y="376" class="st0" width="16" height="16"/>
			<rect x="352" y="376" class="st0" width="16" height="16"/>
			<rect x="112" y="408" class="st0" width="16" height="16"/>
			<rect x="160" y="408" class="st0" width="16" height="16"/>
			<rect x="208" y="408" class="st0" width="16" height="16"/>
			<rect x="256" y="408" class="st0" width="16" height="16"/>
			<rect x="304" y="408" class="st0" width="16" height="16"/>
			<rect x="352" y="408" class="st0" width="16" height="16"/>
			<rect x="112" y="440" class="st0" width="16" height="16"/>
			<rect x="160" y="440" class="st0" width="16" height="16"/>
			<rect x="208" y="440" class="st0" width="16" height="16"/>
			<rect x="256" y="440" class="st0" width="16" height="16"/>
			<rect x="304" y="440" class="st0" width="16" height="16"/>
			<rect x="352" y="440" class="st0" width="16" height="16"/>
			<rect x="112" y="472" class="st0" width="16" height="16"/>
			<rect x="160" y="472" class="st0" width="16" height="16"/>
			<rect x="208" y="472" class="st0" width="16" height="16"/>
			<rect x="256" y="472" class="st0" width="16" height="16"/>
			<rect x="304" y="472" class="st0" width="16" height="16"/>
			<rect x="352" y="472" class="st0" width="16" height="16"/>
		</g>
	</g>
</g>
</svg>
