<?xml version="1.0" encoding="utf-8"?>
<!-- Generator: Adobe Illustrator 19.2.0, SVG Export Plug-In . SVG Version: 6.00 Build 0)  -->
<svg version="1.1" id="Layer_1" xmlns="http://www.w3.org/2000/svg" xmlns:xlink="http://www.w3.org/1999/xlink" x="0px" y="0px"
	 viewBox="0 0 496 496" style="enable-background:new 0 0 496 496;" xml:space="preserve">
<style type="text/css">
	.st0{fill:#FFFFFF;}
</style>
<g>
	<g>
		<g>
			<path class="st0" d="M414,233.1c-10.8-63.9-65.8-111.5-130.9-113C265.9,90.3,234.5,72,200,72c-40.9,0-77.2,26.1-90.5,64.3
				c-20.6-2.1-40.2,7.5-51.6,24.1C25.1,163.4,0,190.6,0,224c0,20.1,9.4,38.6,25,50.6C9.6,290.5,0,312.1,0,336h16
				c0-39.7,32.3-72,71.7-72l5.5,0l2.3-4c10-17.3,28.6-28,48.5-28c3.4,0,6.9,0.3,10.4,1l7.4,1.4l1.8-7.3C177,173.5,224.8,136,280,136
				c60.5,0,111.7,45.3,119,105.3l0.6,4.6c0.3,3.3,0.4,6.7,0.4,10.1c0,66.2-53.8,120-120,120H64v16h216c75,0,136-61,136-136
				c0-2.1-0.2-4.2-0.3-6.3c36.7,7.4,64.3,40.1,64.3,78.3c0,44.1-35.9,80-80,80H32v16h368c52.9,0,96-43.1,96-96
				C496,280.4,460.5,239.9,414,233.1z M150.1,216.3c-2-0.2-4.1-0.3-6.1-0.3c-24,0-46.6,12.2-59.9,32.1c-17.3,0.7-33.2,6.5-46.6,15.9
				C24.2,255.1,16,240.2,16,224c0-26.1,20.5-47.2,46.6-47.9l4.5-0.1l2.2-3.9C76.5,159.7,89.8,152,104,152c3,0,6,0.4,9.2,1.1l7.6,1.8
				l2-7.5c9.3-35,41.1-59.4,77.2-59.4c25.9,0,49.6,12.4,64.5,33C211,127.1,165.9,164.2,150.1,216.3z"/>
			<rect y="408" class="st0" width="16" height="16"/>
			<rect x="32" y="376" class="st0" width="16" height="16"/>
			<rect x="96" y="344" class="st0" width="184" height="16"/>
			<rect x="64" y="344" class="st0" width="16" height="16"/>
		</g>
	</g>
</g>
</svg>
