<?xml version="1.0" encoding="utf-8"?>
<!-- Generator: Adobe Illustrator 19.2.0, SVG Export Plug-In . SVG Version: 6.00 Build 0)  -->
<svg version="1.1" id="Layer_1" xmlns="http://www.w3.org/2000/svg" xmlns:xlink="http://www.w3.org/1999/xlink" x="0px" y="0px"
	 viewBox="0 0 496 496" style="enable-background:new 0 0 496 496;" xml:space="preserve">
<style type="text/css">
	.st0{fill:#FFFFFF;}
</style>
<g>
	<g>
		<g>
			<path class="st0" d="M88,304h312c52.9,0,96-43.1,96-96c0-47.6-35.5-88.1-82-94.9C403,48.2,346.5,0,280,0
				c-60.2,0-112.6,39.2-130,96.3c-26.7-2.3-51.5,10.3-65.9,31.8C37.4,130.1,0,168.8,0,216C0,264.5,39.5,304,88,304z M87.7,144l5.5,0
				l2.3-4c10-17.3,28.6-28,48.5-28c3.4,0,6.9,0.3,10.4,1l7.4,1.4l1.8-7.3C177,53.5,224.8,16,280,16c60.5,0,111.7,45.3,119,105.3
				l0.6,4.6c0.3,3.3,0.4,6.7,0.4,10.1c0,66.2-53.8,120-120,120v16c75,0,136-61,136-136c0-2.1-0.2-4.2-0.3-6.3
				c36.7,7.4,64.3,40.1,64.3,78.3c0,44.1-35.9,80-80,80H88c-39.7,0-72-32.3-72-72S48.3,144,87.7,144z"/>
			<path class="st0" d="M432,360c0-22.1-17.9-40-40-40s-40,17.9-40,40v8h16v-8c0-13.2,10.8-24,24-24s24,10.8,24,24s-10.8,24-24,24
				H24v16h368C414.1,400,432,382.1,432,360z"/>
			<path class="st0" d="M456,416H88v16h368c13.2,0,24,10.8,24,24s-10.8,24-24,24s-24-10.8-24-24v-8h-16v8c0,22.1,17.9,40,40,40
				s40-17.9,40-40S478.1,416,456,416z"/>
			<rect x="320" y="352" class="st0" width="16" height="16"/>
			<rect x="288" y="352" class="st0" width="16" height="16"/>
			<rect x="256" y="352" class="st0" width="16" height="16"/>
			<rect x="384" y="448" class="st0" width="16" height="16"/>
			<rect x="352" y="448" class="st0" width="16" height="16"/>
			<rect x="320" y="448" class="st0" width="16" height="16"/>
		</g>
	</g>
</g>
</svg>
