<?xml version="1.0" encoding="utf-8"?>
<!-- Generator: Adobe Illustrator 19.2.0, SVG Export Plug-In . SVG Version: 6.00 Build 0)  -->
<svg version="1.1" id="Layer_1" xmlns="http://www.w3.org/2000/svg" xmlns:xlink="http://www.w3.org/1999/xlink" x="0px" y="0px"
	 viewBox="0 0 496 496" style="enable-background:new 0 0 496 496;" xml:space="preserve">
<style type="text/css">
	.st0{fill:#FFFFFF;}
</style>
<g>
	<g>
		<g>
			<path class="st0" d="M376,304.5V288h-16v25.6l4,2.3c27.1,15.7,44,44.9,44,76.1c0,24.1-9.6,46.7-27,63.4
				c-17.4,16.7-40.2,25.5-64.5,24.5c-45.6-1.7-83.5-40.3-84.5-85.9c-0.7-32.1,16.1-62,44-78.2l4-2.3V56c0-22.1,17.9-40,40-40
				s40,17.9,40,40v56h16V56c0-30.9-25.1-56-56-56s-56,25.1-56,56v248.5c-30.5,19.6-48.8,53.6-48,90c1.2,53.9,46,99.4,99.9,101.5
				c1.4,0,2.7,0.1,4.1,0.1c27,0,52.5-10.2,72.1-29.1c20.6-19.8,31.9-46.4,31.9-74.9C424,356.6,405.7,323.5,376,304.5z"/>
			<path class="st0" d="M296,256v68.2c-28.6,10.1-48,37.1-48,67.8c0,39.7,32.3,72,72,72s72-32.3,72-72c0-30.7-19.4-57.8-48-67.8V256
				H296z M376,392c0,30.9-25.1,56-56,56s-56-25.1-56-56c0-25.5,17.3-47.8,42-54.2l6-1.5V272h16v64.3l6,1.5
				C358.7,344.2,376,366.5,376,392z"/>
			<rect x="360" y="256" class="st0" width="48" height="16"/>
			<rect x="360" y="224" class="st0" width="48" height="16"/>
			<rect x="360" y="192" class="st0" width="48" height="16"/>
			<rect x="360" y="160" class="st0" width="48" height="16"/>
			<rect x="360" y="128" class="st0" width="48" height="16"/>
			<polygon class="st0" points="226.8,157.2 228.7,141.3 192.9,137 173.9,104 212,104 233.6,132.8 246.4,123.2 232,104 248,104 
				248,88 232,88 246.4,68.8 233.6,59.2 212,88 173.9,88 192.9,55 228.7,50.7 226.8,34.8 202.9,37.6 210.9,23.8 197.1,15.8 
				189.1,29.6 179.7,7.6 164.9,13.9 179.1,47 160,80 140.9,47 155.1,13.9 140.4,7.6 130.9,29.6 122.9,15.8 109.1,23.8 117.1,37.6 
				93.3,34.8 91.3,50.7 127.1,55 146.1,88 108,88 86.4,59.2 73.6,68.8 88,88 72,88 72,104 88,104 73.6,123.2 86.4,132.8 108,104 
				146.1,104 127.1,137 91.3,141.3 93.3,157.2 117.1,154.4 109.1,168.2 122.9,176.2 130.9,162.4 140.4,184.4 155.1,178.1 140.9,145 
				160,112 179.1,145 164.9,178.1 179.7,184.4 189.1,162.4 197.1,176.2 210.9,168.2 202.9,154.4 			"/>
		</g>
	</g>
</g>
</svg>
