<?xml version="1.0" encoding="utf-8"?>
<!-- Generator: Adobe Illustrator 19.2.0, SVG Export Plug-In . SVG Version: 6.00 Build 0)  -->
<svg version="1.1" id="Layer_1" xmlns="http://www.w3.org/2000/svg" xmlns:xlink="http://www.w3.org/1999/xlink" x="0px" y="0px"
	 viewBox="0 0 496 496" style="enable-background:new 0 0 496 496;" xml:space="preserve">
<style type="text/css">
	.st0{fill:#FFFFFF;}
</style>
<g>
	<g>
		<path class="st0" d="M414,209.1C403,144.2,346.5,96,280,96c-60.2,0-112.6,39.2-129.9,96.3c-2-0.2-4.1-0.3-6.1-0.3
			c-24,0-46.6,12.2-59.9,32.1C37.4,226.1,0,264.8,0,312c0,48.5,39.5,88,88,88h312c52.9,0,96-43.1,96-96
			C496,256.4,460.5,215.9,414,209.1z M400,384H88c-39.7,0-72-32.3-72-72s32.3-72,71.7-72l5.5,0l2.3-4c10-17.3,28.6-28,48.5-28
			c3.4,0,6.9,0.3,10.4,1l7.4,1.4l1.8-7.3C177,149.4,224.8,112,280,112c60.5,0,111.7,45.3,119,105.3l0.6,4.6
			c0.3,3.3,0.4,6.7,0.4,10.1c0,66.2-53.8,120-120,120v16c75,0,136-61,136-136c0-2.1-0.2-4.2-0.3-6.3c36.7,7.4,64.3,40.1,64.3,78.3
			C480,348.1,444.1,384,400,384z"/>
	</g>
</g>
</svg>
