<?xml version="1.0" encoding="utf-8"?>
<!-- Generator: Adobe Illustrator 19.2.0, SVG Export Plug-In . SVG Version: 6.00 Build 0)  -->
<svg version="1.1" id="Layer_1" xmlns="http://www.w3.org/2000/svg" xmlns:xlink="http://www.w3.org/1999/xlink" x="0px" y="0px"
	 viewBox="0 0 496 496" style="enable-background:new 0 0 496 496;" xml:space="preserve">
<style type="text/css">
	.st0{fill:#FFFFFF;}
</style>
<g>
	<g>
		<g>
			<path class="st0" d="M464,317.4c-1.4-47.3-40.3-85.4-88-85.4c-33.7,0-63.9,18.9-78.7,48.8c-3.1-0.5-6.2-0.8-9.3-0.8
				c-21.8,0-41.4,12.7-50.6,32.1C207.7,313.4,184,338,184,368c0,30.9,25.1,56,56,56h200c30.9,0,56-25.1,56-56
				C496,346.3,483.3,326.6,464,317.4z M440,408H240c-22.1,0-40-17.9-40-40s17.9-40,40-40c0.5,0,1,0,1.5,0.1l6.8,0.4l2-5.7
				c5.6-16,20.8-26.8,37.7-26.8c3.9,0,7.8,0.6,11.5,1.7l7,2.1l2.7-6.8c11.1-27.4,37.3-45,66.7-45c39.7,0,72,32.3,72,72l-0.3,8.3
				l5.5,1.9c16,5.6,26.8,20.8,26.8,37.7C480,390.1,462.1,408,440,408z"/>
			<path class="st0" d="M312,208c0-21.7-12.7-41.4-32-50.6c-1.4-47.3-40.3-85.4-88-85.4c-33.7,0-63.9,18.9-78.7,48.8
				c-3.1-0.5-6.2-0.8-9.3-0.8c-21.8,0-41.4,12.7-50.6,32.1C23.7,153.4,0,178,0,208c0,30.9,25.1,56,56,56h200
				C286.9,264,312,238.9,312,208z M16,208c0-22.1,17.9-40,40-40c0.5,0,1,0,1.5,0.1l6.8,0.4l2-5.7c5.6-16,20.8-26.8,37.7-26.8
				c3.9,0,7.8,0.6,11.5,1.7l7,2.1l2.7-6.8c11.1-27.4,37.3-45,66.7-45c39.7,0,72,32.3,72,72l-0.3,8.3l5.5,1.9
				c16,5.6,26.8,20.8,26.8,37.7c0,22.1-17.9,40-40,40H56C33.9,248,16,230.1,16,208z"/>
		</g>
	</g>
</g>
</svg>
