<?xml version="1.0" encoding="utf-8"?>
<!-- Generator: Adobe Illustrator 19.2.0, SVG Export Plug-In . SVG Version: 6.00 Build 0)  -->
<svg version="1.1" id="Layer_1" xmlns="http://www.w3.org/2000/svg" xmlns:xlink="http://www.w3.org/1999/xlink" x="0px" y="0px"
	 viewBox="0 0 496 496" style="enable-background:new 0 0 496 496;" xml:space="preserve">
<style type="text/css">
	.st0{fill:#FFFFFF;}
</style>
<g>
	<g>
		<g>
			<path class="st0" d="M414,257.1C403,192.2,346.5,144,280,144c-48.8,0-92.6,25.9-116.6,66.1c-19.4-13.1-32.2-33.7-34.9-56.7
				c-3.3-29,8.7-56.6,32.2-73.8c4.6-3.4,7.3-8.6,7.3-14.1c0-4.7-1.8-9.1-5.2-12.4c-3.3-3.3-7.8-5.3-12.4-5.1c-2.2,0-4,0-4.7,0.1
				c-41.2,1.7-79.1,19.5-106.8,50.3C11.3,129.1-2.4,168.8,0.3,210.2c2,30,12.9,58.2,31.5,82.2C12.4,308.6,0,332.8,0,360
				c0,48.5,39.5,88,88,88h312c52.9,0,96-43.1,96-96C496,304.4,460.5,263.9,414,257.1z M16.3,209.1c-2.4-37.1,9.8-72.6,34.5-100.1
				c24.7-27.5,58.7-43.5,95.5-45c0.6,0,2.3,0,4.2-0.1c0,0,0,0,0,0c0.5,0,0.8,0.2,1,0.4s0.4,0.5,0.4,1c0,0.6-0.6,1.1-0.8,1.2
				c-28.2,20.7-42.6,53.8-38.6,88.6c3.2,28.3,19.4,53.5,43.5,69.2c-2.3,5.1-4.4,10.4-6.1,15.9c-26.7-2.4-51.5,10.3-65.9,31.8
				c-14.2,0.6-27.5,4.6-39.1,11.2C28,261.6,18.1,236.2,16.3,209.1z M400,432H88c-39.7,0-72-32.3-72-72s32.3-72,71.7-72l5.5,0l2.3-4
				c10-17.3,28.6-28,48.5-28c3.4,0,6.9,0.3,10.4,1l7.4,1.4l1.8-7.3C177,197.5,224.8,160,280,160c60.5,0,111.7,45.3,119,105.3
				l0.6,4.6c0.3,3.3,0.4,6.7,0.4,10.1c0,66.2-53.8,120-120,120v16c75,0,136-61,136-136c0-2.1-0.2-4.2-0.3-6.3
				c36.7,7.4,64.3,40.1,64.3,78.3C480,396.1,444.1,432,400,432z"/>
			<rect x="216" y="48" class="st0" width="16" height="16"/>
			<rect x="232" y="64" class="st0" width="16" height="16"/>
			<rect x="216" y="80" class="st0" width="16" height="16"/>
			<rect x="200" y="64" class="st0" width="16" height="16"/>
			<rect x="184" y="112" class="st0" width="16" height="16"/>
			<rect x="200" y="128" class="st0" width="16" height="16"/>
			<rect x="184" y="144" class="st0" width="16" height="16"/>
			<rect x="168" y="128" class="st0" width="16" height="16"/>
		</g>
	</g>
</g>
</svg>
