<?xml version="1.0" encoding="utf-8"?>
<!-- Generator: Adobe Illustrator 19.2.0, SVG Export Plug-In . SVG Version: 6.00 Build 0)  -->
<svg version="1.1" id="Layer_1" xmlns="http://www.w3.org/2000/svg" xmlns:xlink="http://www.w3.org/1999/xlink" x="0px" y="0px"
	 viewBox="0 0 496 496" style="enable-background:new 0 0 496 496;" xml:space="preserve">
<style type="text/css">
	.st0{fill:#FFFFFF;}
</style>
<g>
	<g>
		<path class="st0" d="M414,162.9C403.1,99,348.2,51.4,283,50c-17.1-29.8-48.5-48.1-83-48.1c-40.9,0-77.2,26.1-90.5,64.3
			C88.9,64,69.3,73.6,57.9,90.2C25.1,93.3,0,120.4,0,153.9c0,20.1,9.4,38.6,25,50.6C9.6,220.3,0,242,0,265.9
			c0,46.6,36.5,84.8,82.4,87.7l-32.2,56.3h47.2l-48.2,75.7l13.5,8.6l63.8-100.3H77.8l22.9-40h69.6l-32,56h47.2l-48.2,75.7l13.5,8.6
			l63.8-100.3h-48.8l22.9-40h69.6l-32,56h47.2l-48.2,75.7l13.5,8.6l63.8-100.3h-48.8l22.9-40h69.6l-32,56h47.2l-48.2,75.7l13.5,8.6
			l63.8-100.3h-48.8l22.9-40H400c52.9,0,96-43.1,96-96C496,210.3,460.5,169.8,414,162.9z M16,153.9c0-26.1,20.5-47.2,46.6-47.9
			l4.5-0.1l2.2-3.9c7.2-12.4,20.4-20.1,34.6-20.1c3,0,6,0.4,9.2,1.1l7.6,1.8l2-7.5c9.3-35,41.1-59.4,77.2-59.4
			c25.9,0,49.6,12.4,64.5,33c-53.5,6.1-98.6,43.2-114.4,95.3c-2-0.2-4.1-0.3-6.1-0.3c-24,0-46.6,12.2-59.9,32.1
			c-17.3,0.7-33.2,6.5-46.6,15.9C24.2,184.9,16,170.1,16,153.9z M400,337.9H88c-39.7,0-72-32.3-72-72s32.3-72,71.7-72l5.5,0l2.3-4
			c10-17.3,28.6-28,48.5-28c3.4,0,6.9,0.3,10.4,1l7.4,1.4l1.8-7.3C177,103.3,224.8,65.9,280,65.9c60.5,0,111.7,45.3,119,105.3
			l0.6,4.6c0.3,3.3,0.4,6.7,0.4,10.1c0,66.2-53.8,120-120,120v16c75,0,136-61,136-136c0-2.1-0.2-4.2-0.3-6.3
			c36.7,7.4,64.3,40.1,64.3,78.3C480,302,444.1,337.9,400,337.9z"/>
	</g>
</g>
</svg>
