<?xml version="1.0" encoding="utf-8"?>
<!-- Generator: Adobe Illustrator 19.2.0, SVG Export Plug-In . SVG Version: 6.00 Build 0)  -->
<svg version="1.1" id="Layer_1" xmlns="http://www.w3.org/2000/svg" xmlns:xlink="http://www.w3.org/1999/xlink" x="0px" y="0px"
	 viewBox="0 0 496 496" style="enable-background:new 0 0 496 496;" xml:space="preserve">
<style type="text/css">
	.st0{fill:#FFFFFF;}
</style>
<g>
	<g>
		<g>
			<rect x="165" y="46.9" transform="matrix(0.9239 -0.3827 0.3827 0.9239 -12.443 71.2979)" class="st0" width="16" height="40"/>
			
				<rect x="58.9" y="153" transform="matrix(0.3827 -0.9239 0.9239 0.3827 -118.5172 168.592)" class="st0" width="16" height="40"/>
			<rect x="47" y="315.1" transform="matrix(0.9239 -0.3827 0.3827 0.9239 -118.5333 50.214)" class="st0" width="40" height="16"/>
			
				<rect x="153" y="421.1" transform="matrix(0.3828 -0.9238 0.9238 0.3828 -289.6845 424.6407)" class="st0" width="40" height="16"/>
			
				<rect x="315" y="409" transform="matrix(0.9239 -0.3827 0.3827 0.9239 -139.5928 156.2823)" class="st0" width="16" height="40"/>
			
				<rect x="421.1" y="303" transform="matrix(0.3827 -0.9239 0.9239 0.3827 -33.5424 595.8145)" class="st0" width="16" height="40"/>
			<rect x="409" y="165" transform="matrix(0.9239 -0.3827 0.3827 0.9239 -33.5497 177.3611)" class="st0" width="40" height="16"/>
			
				<rect x="303" y="58.9" transform="matrix(0.3828 -0.9238 0.9238 0.3828 137.5539 339.6728)" class="st0" width="40" height="16"/>
			<path class="st0" d="M248,88c-88.2,0-160,71.8-160,160s71.8,160,160,160s160-71.8,160-160S336.2,88,248,88z M248,392
				c-79.4,0-144-64.6-144-144s64.6-144,144-144s144,64.6,144,144S327.4,392,248,392z"/>
			<rect x="240" class="st0" width="16" height="72"/>
			<rect x="90.1" y="62.1" transform="matrix(0.7071 -0.7071 0.7071 0.7071 -40.6313 98.096)" class="st0" width="16" height="72"/>
			<rect y="240" class="st0" width="72" height="16"/>
			
				<rect x="62.1" y="389.9" transform="matrix(0.7071 -0.7071 0.7071 0.7071 -252.6404 185.9071)" class="st0" width="72" height="16"/>
			<rect x="240" y="424" class="st0" width="16" height="72"/>
			
				<rect x="389.9" y="361.9" transform="matrix(0.7071 -0.7071 0.7071 0.7071 -164.8362 397.8925)" class="st0" width="16" height="72"/>
			<rect x="424" y="240" class="st0" width="72" height="16"/>
			
				<rect x="361.9" y="90.1" transform="matrix(0.7071 -0.7071 0.7071 0.7071 47.1871 310.0937)" class="st0" width="72" height="16"/>
		</g>
	</g>
</g>
</svg>
