<?xml version="1.0" encoding="utf-8"?>
<!-- Generator: Adobe Illustrator 19.2.0, SVG Export Plug-In . SVG Version: 6.00 Build 0)  -->
<svg version="1.1" id="Layer_1" xmlns="http://www.w3.org/2000/svg" xmlns:xlink="http://www.w3.org/1999/xlink" x="0px" y="0px"
	 viewBox="0 0 496 496" style="enable-background:new 0 0 496 496;" xml:space="preserve">
<style type="text/css">
	.st0{fill:#FFFFFF;}
</style>
<g>
	<g>
		<g>
			<path class="st0" d="M495.8,243.1c-0.3-10.7-9-19.1-19.6-19.1c-6.9,0-13.3,3.6-16.9,9.7c-30.4,50.9-88.1,77.8-147.2,68.4
				c-70.3-11.2-120.6-71.8-119.7-144.2c0.7-56.3,29-102,77.7-125.3c6-2.9,9.7-8.7,9.7-15.2c0-8.9-7-16.3-15.9-16.8
				C258.7,0.2,253.5,0,248.4,0C180,0,113.9,28.7,67.1,78.6c-47.4,50.6-71,116.6-66.4,185.9c8.1,124.3,108,223.6,232.2,231
				c5.1,0.3,10.2,0.4,15.3,0.4c63.5,0,123.3-23.7,169.8-67.5c50.2-47.4,77.9-111.5,77.9-180.5C495.9,246.4,495.9,244.7,495.8,243.1z
				 M407,416.9c-47,44.3-108.5,66.5-173.2,62.7c-116.2-6.9-209.6-99.8-217.2-216c-4.2-64.9,17.8-126.7,62.1-174
				C122.6,42.8,184.4,16,248.4,16c4.8,0,9.6,0.2,14.4,0.5c0.5,0,0.9,0.4,0.9,0.9c0,0.4-0.3,0.6-0.6,0.8
				c-53.5,25.7-86,77.8-86.8,139.6c-1,80.4,55,147.8,133.2,160.2c65.5,10.4,129.6-19.4,163.4-76v0c1.8-3.1,6.7-1.6,6.8,1.6
				c0,1.5,0.1,3,0.1,4.5C479.9,312.6,454,372.6,407,416.9z"/>
			<rect x="335.8" class="st0" width="16" height="24"/>
			<rect x="351.8" y="24" class="st0" width="24" height="16"/>
			<rect x="335.8" y="40" class="st0" width="16" height="24"/>
			<rect x="311.8" y="24" class="st0" width="24" height="16"/>
			<rect x="399.8" y="112" class="st0" width="16" height="24"/>
			<rect x="415.8" y="136" class="st0" width="24" height="16"/>
			<rect x="399.8" y="152" class="st0" width="16" height="24"/>
			<rect x="375.8" y="136" class="st0" width="24" height="16"/>
			<rect x="287.8" y="104" class="st0" width="16" height="16"/>
			<rect x="303.8" y="120" class="st0" width="16" height="16"/>
			<rect x="287.8" y="136" class="st0" width="16" height="16"/>
			<rect x="271.8" y="120" class="st0" width="16" height="16"/>
		</g>
	</g>
</g>
</svg>
