<?xml version="1.0" encoding="utf-8"?>
<!-- Generator: Adobe Illustrator 19.2.0, SVG Export Plug-In . SVG Version: 6.00 Build 0)  -->
<svg version="1.1" id="Layer_1" xmlns="http://www.w3.org/2000/svg" xmlns:xlink="http://www.w3.org/1999/xlink" x="0px" y="0px"
	 viewBox="0 0 496 496" style="enable-background:new 0 0 496 496;" xml:space="preserve">
<style type="text/css">
	.st0{fill:#FFFFFF;}
</style>
<g>
	<g>
		<g>
			<path class="st0" d="M448,448c-16.7,0-31.4,8.5-40,21.5c-8.6-13-23.3-21.5-40-21.5s-31.4,8.5-40,21.5c-8.6-13-23.3-21.5-40-21.5
				s-31.4,8.5-40,21.5c-8.6-13-23.3-21.5-40-21.5s-31.4,8.5-40,21.5c-8.6-13-23.3-21.5-40-21.5s-31.4,8.5-40,21.5
				c-8.6-13-23.3-21.5-40-21.5c-26.5,0-48,21.5-48,48h16c0-17.6,14.4-32,32-32s32,14.4,32,32h16c0-17.6,14.4-32,32-32s32,14.4,32,32
				h16c0-17.6,14.4-32,32-32s32,14.4,32,32h16c0-17.6,14.4-32,32-32s32,14.4,32,32h16c0-17.6,14.4-32,32-32s32,14.4,32,32h16
				c0-17.6,14.4-32,32-32s32,14.4,32,32h16C496,469.5,474.5,448,448,448z"/>
			<path class="st0" d="M448,405.5c-8.6-13-23.3-21.5-40-21.5s-31.4,8.5-40,21.5c-8.6-13-23.3-21.5-40-21.5s-31.4,8.5-40,21.5
				c-8.6-13-23.3-21.5-40-21.5s-31.4,8.5-40,21.5c-8.6-13-23.3-21.5-40-21.5s-31.4,8.5-40,21.5c-8.6-13-23.3-21.5-40-21.5
				s-31.4,8.5-40,21.5c-8.6-13-23.3-21.5-40-21.5H0v16h8c17.6,0,32,14.4,32,32h16c0-17.6,14.4-32,32-32s32,14.4,32,32h16
				c0-17.6,14.4-32,32-32s32,14.4,32,32h16c0-17.6,14.4-32,32-32s32,14.4,32,32h16c0-17.6,14.4-32,32-32s32,14.4,32,32h16
				c0-17.6,14.4-32,32-32s32,14.4,32,32h16c0-17.6,14.4-32,32-32h8v-16h-8C471.3,384,456.6,392.5,448,405.5z"/>
			<path class="st0" d="M448,320c-16.7,0-31.4,8.5-40,21.5c-3.4-5.1-7.8-9.5-12.8-13c13.6-24.7,20.8-52.5,20.8-80.5
				c0-92.6-75.4-168-168-168S80,155.4,80,248c0,28.1,7.2,55.8,20.8,80.5c-5,3.5-9.4,7.9-12.8,13C79.4,328.5,64.7,320,48,320
				c-26.5,0-48,21.5-48,48h16c0-17.6,14.4-32,32-32s32,14.4,32,32h16c0-17.6,14.4-32,32-32s32,14.4,32,32h16c0-17.6,14.4-32,32-32
				s32,14.4,32,32h16c0-17.6,14.4-32,32-32s32,14.4,32,32h16c0-17.6,14.4-32,32-32s32,14.4,32,32h16c0-17.6,14.4-32,32-32
				s32,14.4,32,32h16C496,341.5,474.5,320,448,320z M380.7,321.7c-4-1.1-8.3-1.7-12.7-1.7c-16.7,0-31.4,8.5-40,21.5
				c-8.6-13-23.3-21.5-40-21.5s-31.4,8.5-40,21.5c-8.6-13-23.3-21.5-40-21.5s-31.4,8.5-40,21.5c-8.6-13-23.3-21.5-40-21.5
				c-4.4,0-8.7,0.6-12.7,1.7C102.7,299.1,96,273.7,96,248c0-83.8,68.2-152,152-152s152,68.2,152,152
				C400,273.7,393.3,299.1,380.7,321.7z"/>
			<rect y="240" class="st0" width="64" height="16"/>
			
				<rect x="403.1" y="132" transform="matrix(0.8661 -0.4999 0.4999 0.8661 -11.7227 236.2273)" class="st0" width="64" height="16"/>
			
				<rect x="324" y="52.9" transform="matrix(0.4999 -0.8661 0.8661 0.4999 125.2627 338.7937)" class="st0" width="64" height="16"/>
			<rect x="240" class="st0" width="16" height="64"/>
			<rect x="132" y="28.9" transform="matrix(0.866 -0.5 0.5 0.866 -11.7119 78.1635)" class="st0" width="16" height="64"/>
			<rect x="52.9" y="108" transform="matrix(0.5 -0.866 0.866 0.5 -90.7726 122.7646)" class="st0" width="16" height="64"/>
			<rect x="432" y="232" class="st0" width="64" height="16"/>
		</g>
	</g>
</g>
</svg>
