<?xml version="1.0" encoding="utf-8"?>
<!-- Generator: Adobe Illustrator 19.2.0, SVG Export Plug-In . SVG Version: 6.00 Build 0)  -->
<svg version="1.1" id="Layer_1" xmlns="http://www.w3.org/2000/svg" xmlns:xlink="http://www.w3.org/1999/xlink" x="0px" y="0px"
	 viewBox="0 0 496 496" style="enable-background:new 0 0 496 496;" xml:space="preserve">
<style type="text/css">
	.st0{fill:#FFFFFF;}
</style>
<g>
	<g>
		<g>
			<path class="st0" d="M376,304.5V288h-16v25.6l4,2.3c27.1,15.7,44,44.9,44,76.1c0,24.1-9.6,46.7-27,63.4
				c-17.4,16.7-40.3,25.5-64.5,24.5c-45.6-1.7-83.5-40.3-84.5-85.9c-0.7-32.1,16.1-62.1,44-78.2l4-2.3V56c0-22.1,17.9-40,40-40
				s40,17.9,40,40v56h16V56c0-30.9-25.1-56-56-56s-56,25.1-56,56v248.5c-30.5,19.6-48.8,53.6-48,90c1.2,53.9,46.1,99.4,99.9,101.5
				c1.4,0,2.7,0.1,4.1,0.1c27.1,0,52.5-10.2,72.1-29.1c20.6-19.8,31.9-46.4,31.9-74.9C424,356.6,405.7,323.5,376,304.5z"/>
			<path class="st0" d="M320,32c-13.2,0-24,10.8-24,24v268.2c-33.2,11.6-53.2,45.3-46.8,80.9c5.1,28.8,27.8,51.9,56.4,57.5
				c4.8,0.9,9.5,1.4,14.3,1.4c16.7,0,32.9-5.7,45.9-16.4c16.7-13.7,26.2-34,26.2-55.6c0-30.7-19.4-57.8-48-67.8V56
				C344,42.8,333.2,32,320,32z M376,392c0,16.8-7.4,32.6-20.4,43.2s-30.1,14.9-46.9,11.6c-22.2-4.3-39.8-22.2-43.7-44.6
				c-5.2-29.4,12.5-57.1,41.1-64.5l6-1.6V56c0-4.4,3.6-8,8-8s8,3.6,8,8v280.3l6,1.5C358.7,344.2,376,366.5,376,392z"/>
			<rect x="360" y="256" class="st0" width="48" height="16"/>
			<rect x="360" y="224" class="st0" width="48" height="16"/>
			<rect x="360" y="192" class="st0" width="48" height="16"/>
			<rect x="360" y="160" class="st0" width="48" height="16"/>
			<rect x="360" y="128" class="st0" width="48" height="16"/>
			<path class="st0" d="M160,40c-26.5,0-48,21.5-48,48s21.5,48,48,48s48-21.5,48-48S186.5,40,160,40z M160,120
				c-17.6,0-32-14.4-32-32s14.4-32,32-32s32,14.4,32,32S177.7,120,160,120z"/>
			<rect x="152" class="st0" width="16" height="24"/>
			<rect x="98.3" y="22.3" transform="matrix(0.7072 -0.707 0.707 0.7072 6.8921 85.1551)" class="st0" width="16" height="24"/>
			<rect x="72" y="80" class="st0" width="24" height="16"/>
			
				<rect x="94.3" y="133.7" transform="matrix(0.7071 -0.7071 0.7071 0.7071 -69.1032 116.6549)" class="st0" width="24" height="16"/>
			<rect x="152" y="152" class="st0" width="16" height="24"/>
			
				<rect x="205.7" y="129.7" transform="matrix(0.7072 -0.707 0.707 0.7072 -37.6326 192.6237)" class="st0" width="16" height="24"/>
			<rect x="224" y="80" class="st0" width="24" height="16"/>
			
				<rect x="201.7" y="26.3" transform="matrix(0.7071 -0.7071 0.7071 0.7071 38.3774 161.1779)" class="st0" width="24" height="16"/>
		</g>
	</g>
</g>
</svg>
