<?xml version="1.0" encoding="utf-8"?>
<!-- Generator: Adobe Illustrator 19.2.0, SVG Export Plug-In . SVG Version: 6.00 Build 0)  -->
<svg version="1.1" id="Layer_1" xmlns="http://www.w3.org/2000/svg" xmlns:xlink="http://www.w3.org/1999/xlink" x="0px" y="0px"
	 viewBox="0 0 496 496" style="enable-background:new 0 0 496 496;" xml:space="preserve">
<style type="text/css">
	.st0{fill:#FFFFFF;}
</style>
<g>
	<g>
		<g>
			<path class="st0" d="M414,118.9C403,54,346.5,5.9,280,5.9c-60.2,0-112.6,39.2-129.9,96.3c-2-0.2-4.1-0.3-6.1-0.3
				c-24,0-46.6,12.2-59.9,32.1C37.4,136,0,174.6,0,221.9c0,48.5,39.5,88,88,88v-16c-39.7,0-72-32.3-72-72s32.3-72,71.7-72l5.5,0
				l2.3-4c10-17.3,28.6-28,48.5-28c3.4,0,6.9,0.3,10.4,1l7.4,1.4l1.8-7.3C177,59.3,224.8,21.9,280,21.9c60.5,0,111.7,45.3,119,105.3
				l0.6,4.6c0.3,3.3,0.4,6.7,0.4,10.1c0,66.2-53.8,120-120,120v16c75,0,136-61,136-136c0-2.1-0.2-4.2-0.3-6.3
				c36.7,7.4,64.3,40.1,64.3,78.3c0,44.1-35.9,80-80,80v16c52.9,0,96-43.1,96-96C496,166.3,460.5,125.8,414,118.9z"/>
			
				<rect x="94.1" y="317.8" transform="matrix(0.4472 -0.8944 0.8944 0.4472 -229.5124 280.3159)" class="st0" width="35.8" height="16"/>
			
				<rect x="70.1" y="365.9" transform="matrix(0.4472 -0.8944 0.8944 0.4472 -285.7806 285.3687)" class="st0" width="35.8" height="16"/>
			
				<rect x="46.1" y="413.9" transform="matrix(0.4472 -0.8944 0.8944 0.4472 -341.9347 290.4543)" class="st0" width="35.8" height="16"/>
			
				<rect x="22.1" y="461.9" transform="matrix(0.4472 -0.8944 0.8944 0.4472 -398.1617 295.4854)" class="st0" width="35.8" height="16"/>
			
				<rect x="150.1" y="317.8" transform="matrix(0.4472 -0.8944 0.8944 0.4472 -198.5943 330.366)" class="st0" width="35.8" height="16"/>
			
				<rect x="126.1" y="365.9" transform="matrix(0.4472 -0.8944 0.8944 0.4472 -254.8013 335.4504)" class="st0" width="35.8" height="16"/>
			
				<rect x="102.1" y="413.9" transform="matrix(0.4472 -0.8944 0.8944 0.4472 -310.9929 340.5066)" class="st0" width="35.8" height="16"/>
			
				<rect x="78.1" y="461.9" transform="matrix(0.4472 -0.8944 0.8944 0.4472 -367.2049 345.5787)" class="st0" width="35.8" height="16"/>
			
				<rect x="302.1" y="317.8" transform="matrix(0.4472 -0.8944 0.8944 0.4472 -114.5675 466.3213)" class="st0" width="35.8" height="16"/>
			
				<rect x="278.1" y="365.9" transform="matrix(0.4472 -0.8944 0.8944 0.4472 -170.7683 471.3976)" class="st0" width="35.8" height="16"/>
			
				<rect x="254.1" y="413.9" transform="matrix(0.4472 -0.8944 0.8944 0.4472 -227.0116 476.4989)" class="st0" width="35.8" height="16"/>
			
				<rect x="230.1" y="461.9" transform="matrix(0.4472 -0.8944 0.8944 0.4472 -283.1847 481.5374)" class="st0" width="35.8" height="16"/>
			
				<rect x="358.1" y="317.9" transform="matrix(0.4472 -0.8944 0.8944 0.4472 -83.6202 516.4525)" class="st0" width="35.8" height="16"/>
			
				<rect x="334.1" y="365.9" transform="matrix(0.4472 -0.8944 0.8944 0.4472 -139.8393 521.4789)" class="st0" width="35.8" height="16"/>
			
				<rect x="310.1" y="413.9" transform="matrix(0.4472 -0.8944 0.8944 0.4472 -196.0426 526.5955)" class="st0" width="35.8" height="16"/>
			
				<rect x="286.1" y="461.9" transform="matrix(0.4472 -0.8944 0.8944 0.4472 -252.2416 531.6083)" class="st0" width="35.8" height="16"/>
			<polygon class="st0" points="198.1,389.9 238.9,322 225.1,313.7 169.9,405.9 217.4,405.9 169.2,481.6 182.8,490.1 246.6,389.9 
							"/>
		</g>
	</g>
</g>
</svg>
