<?xml version="1.0" encoding="utf-8"?>
<!-- Generator: Adobe Illustrator 19.2.0, SVG Export Plug-In . SVG Version: 6.00 Build 0)  -->
<svg version="1.1" id="Layer_1" xmlns="http://www.w3.org/2000/svg" xmlns:xlink="http://www.w3.org/1999/xlink" x="0px" y="0px"
	 viewBox="0 0 496 496" style="enable-background:new 0 0 496 496;" xml:space="preserve">
<style type="text/css">
	.st0{fill:#FFFFFF;}
</style>
<g>
	<g>
		<path class="st0" d="M414,153.1C403,88.2,346.5,40,280,40c-60.2,0-112.6,39.2-130,96.3c-26.7-2.3-51.5,10.3-65.9,31.8
			C37.4,170.1,0,208.8,0,256c0,48.5,39.5,88,88,88h139.7l2.5,2.1L179.5,456h32.7l77-112H400c52.9,0,96-43.1,96-96
			C496,200.4,460.5,159.9,414,153.1z M206,436.8l43.8-95L194,294l44.6-89.2l-15.5,62l62.3,54.5L206,436.8z M280.7,296l-39.7-34.8
			L266.2,160h-23.2l-69,138l35,30H88c-39.7,0-72-32.3-72-72s32.3-72,71.7-72l5.5,0l2.3-4c10-17.3,28.6-28,48.5-28
			c3.4,0,6.9,0.3,10.4,1l7.4,1.4l1.8-7.3C177,93.5,224.8,56,280,56c60.5,0,111.7,45.3,119,105.3l0.6,4.6c0.3,3.3,0.4,6.7,0.4,10.1
			C400,241.9,346.5,295.6,280.7,296z M400,328h-99.8l6.4-9.3l-9.1-7.9C364.3,302.1,416,245,416,176c0-2.1-0.2-4.2-0.3-6.3
			c36.7,7.4,64.3,40.1,64.3,78.3C480,292.1,444.1,328,400,328z"/>
	</g>
</g>
</svg>
