<?xml version="1.0" encoding="utf-8"?>
<!-- Generator: Adobe Illustrator 19.2.0, SVG Export Plug-In . SVG Version: 6.00 Build 0)  -->
<svg version="1.1" id="Layer_1" xmlns="http://www.w3.org/2000/svg" xmlns:xlink="http://www.w3.org/1999/xlink" x="0px" y="0px"
	 viewBox="0 0 496 496" style="enable-background:new 0 0 496 496;" xml:space="preserve">
<style type="text/css">
	.st0{fill:#FFFFFF;}
</style>
<g>
	<g>
		<g>
			<path class="st0" d="M414,153.1C403,88.2,346.5,40,280,40c-60.2,0-112.6,39.2-130,96.3c-26.7-2.3-51.5,10.3-65.9,31.8
				C37.4,170.1,0,208.8,0,256c0,48.5,39.5,88,88,88h88c0,17.6,14.4,32,32,32s32-14.4,32-32v-1.4c0-5.8-1.6-11.5-4.6-16.5L208,280.5
				l-27.4,45.7c-0.4,0.6-0.6,1.2-0.9,1.8H88c-39.7,0-72-32.3-72-72s32.3-72,71.7-72l5.5,0l2.3-4c10-17.3,28.6-28,48.5-28
				c3.4,0,6.9,0.3,10.4,1l7.4,1.4l1.8-7.3C177,93.5,224.8,56,280,56c60.5,0,111.7,45.3,119,105.3l0.6,4.6c0.3,3.3,0.4,6.7,0.4,10.1
				c0,60.5-45.1,110.6-103.4,118.7l-8.6-14.3l-27.4,45.7c-3,5-4.6,10.7-4.6,16.5v1.4c0,17.6,14.4,32,32,32s32-14.4,32-32h80
				c52.9,0,96-43.1,96-96C496,200.4,460.5,159.9,414,153.1z M192,342.6c0-2.9,0.8-5.8,2.3-8.2l13.7-22.9l13.7,22.9
				c1.5,2.5,2.3,5.4,2.3,8.2v1.4c0,8.8-7.2,16-16,16s-16-7.2-16-16V342.6z M304,344c0,8.8-7.2,16-16,16s-16-7.2-16-16v-1.4
				c0-2.9,0.8-5.6,2.3-8L288,312c0,0,0,0,0.1,0l13.7,22.6c1.5,2.5,2.3,5.1,2.3,8L304,344L304,344z M400,328h-83.6
				c-0.3-0.6-0.6-1.2-0.9-1.8l-10-16.7C368.3,297.6,416,242.3,416,176c0-2.1-0.2-4.2-0.3-6.3c36.7,7.4,64.3,40.1,64.3,78.3
				C480,292.1,444.1,328,400,328z"/>
			<path class="st0" d="M280,264v-1.4c0-5.8-1.6-11.5-4.6-16.5L248,200.5l-27.4,45.7c-3,5-4.6,10.7-4.6,16.5v1.4
				c0,17.6,14.4,32,32,32S280,281.6,280,264z M264,264c0,8.8-7.2,16-16,16s-16-7.2-16-16v-1.4c0-2.9,0.8-5.8,2.3-8.2l13.7-22.9
				l13.7,22.9c1.5,2.5,2.3,5.4,2.3,8.2V264z"/>
			<path class="st0" d="M168,360.5l-27.4,45.7c-3,5-4.6,10.7-4.6,16.5v1.4c0,17.6,14.4,32,32,32s32-14.4,32-32v-1.4
				c0-5.8-1.6-11.5-4.6-16.5L168,360.5z M184,424c0,8.8-7.2,16-16,16s-16-7.2-16-16v-1.4c0-2.9,0.8-5.8,2.3-8.2l13.7-22.9l13.7,22.9
				c1.5,2.5,2.3,5.4,2.3,8.2V424z"/>
			<path class="st0" d="M248,360.5l-27.4,45.7c-3,5-4.6,10.7-4.6,16.5v1.4c0,17.6,14.4,32,32,32s32-14.4,32-32v-1.4
				c0-5.8-1.6-11.5-4.6-16.5L248,360.5z M264,424c0,8.8-7.2,16-16,16s-16-7.2-16-16v-1.4c0-2.9,0.8-5.8,2.3-8.2l13.7-22.9l13.7,22.9
				c1.5,2.5,2.3,5.4,2.3,8.2V424z"/>
			<path class="st0" d="M328,360.5l-27.4,45.7c-3,5-4.6,10.7-4.6,16.5v1.4c0,17.6,14.4,32,32,32s32-14.4,32-32v-1.4
				c0-5.8-1.6-11.5-4.6-16.5L328,360.5z M344,424c0,8.8-7.2,16-16,16s-16-7.2-16-16v-1.4c0-2.9,0.8-5.8,2.3-8.2l13.7-22.9l13.7,22.9
				c1.5,2.5,2.3,5.4,2.3,8.2V424z"/>
		</g>
	</g>
</g>
</svg>
