<?xml version="1.0" encoding="utf-8"?>
<!-- Generator: Adobe Illustrator 19.2.0, SVG Export Plug-In . SVG Version: 6.00 Build 0)  -->
<svg version="1.1" id="Layer_1" xmlns="http://www.w3.org/2000/svg" xmlns:xlink="http://www.w3.org/1999/xlink" x="0px" y="0px"
	 viewBox="0 0 496 496" style="enable-background:new 0 0 496 496;" xml:space="preserve">
<style type="text/css">
	.st0{fill:#FFFFFF;}
</style>
<g>
	<g>
		<g>
			<path class="st0" d="M414,113.1C403,48.2,346.5,0,280,0c-60.2,0-112.6,39.2-130,96.3c-26.7-2.3-51.5,10.3-65.9,31.8
				C37.4,130.1,0,168.8,0,216c0,48.5,39.5,88,88,88h312c52.9,0,96-43.1,96-96C496,160.4,460.5,119.9,414,113.1z M400,288H88
				c-39.7,0-72-32.3-72-72s32.3-72,71.7-72l5.5,0l2.3-4c10-17.3,28.6-28,48.5-28c3.4,0,6.9,0.3,10.4,1l7.4,1.4l1.8-7.3
				C177,53.4,224.8,16,280,16c60.5,0,111.7,45.3,119,105.3l0.6,4.6c0.3,3.3,0.4,6.7,0.4,10.1c0,66.2-53.8,120-120,120v16
				c75,0,136-61,136-136c0-2.1-0.2-4.2-0.3-6.3c36.7,7.4,64.3,40.1,64.3,78.3C480,252.1,444.1,288,400,288z"/>
			<polygon class="st0" points="180.4,328.8 160,339.1 160,320 144,320 144,339.1 123.6,328.8 116.4,343.2 134.1,352 116.4,360.8 
				123.6,375.2 144,364.9 144,384 160,384 160,364.9 180.4,375.2 187.6,360.8 169.9,352 187.6,343.2 			"/>
			<polygon class="st0" points="180.4,408.8 160,419.1 160,400 144,400 144,419.1 123.6,408.8 116.4,423.2 134.1,432 116.4,440.8 
				123.6,455.2 144,444.9 144,464 160,464 160,444.9 180.4,455.2 187.6,440.8 169.9,432 187.6,423.2 			"/>
			<polygon class="st0" points="372.4,328.8 352,339.1 352,320 336,320 336,339.1 315.6,328.8 308.4,343.2 326.1,352 308.4,360.8 
				315.6,375.2 336,364.9 336,384 352,384 352,364.9 372.4,375.2 379.6,360.8 361.9,352 379.6,343.2 			"/>
			<polygon class="st0" points="372.4,408.8 352,419.1 352,400 336,400 336,419.1 315.6,408.8 308.4,423.2 326.1,432 308.4,440.8 
				315.6,455.2 336,444.9 336,464 352,464 352,444.9 372.4,455.2 379.6,440.8 361.9,432 379.6,423.2 			"/>
			<polygon class="st0" points="276.4,360.8 256,371.1 256,352 240,352 240,371.1 219.6,360.8 212.4,375.2 230.1,384 212.4,392.8 
				219.6,407.2 240,396.9 240,416 256,416 256,396.9 276.4,407.2 283.6,392.8 265.9,384 283.6,375.2 			"/>
			<polygon class="st0" points="276.4,440.8 256,451.1 256,432 240,432 240,451.1 219.6,440.8 212.4,455.2 230.1,464 212.4,472.8 
				219.6,487.2 240,476.9 240,496 256,496 256,476.9 276.4,487.2 283.6,472.8 265.9,464 283.6,455.2 			"/>
		</g>
	</g>
</g>
</svg>
