<?xml version="1.0" encoding="utf-8"?>
<!-- Generator: Adobe Illustrator 19.2.0, SVG Export Plug-In . SVG Version: 6.00 Build 0)  -->
<svg version="1.1" id="Layer_1" xmlns="http://www.w3.org/2000/svg" xmlns:xlink="http://www.w3.org/1999/xlink" x="0px" y="0px"
	 viewBox="0 0 496 496" style="enable-background:new 0 0 496 496;" xml:space="preserve">
<style type="text/css">
	.st0{fill:#FFFFFF;}
</style>
<g>
	<g>
		<g>
			<path class="st0" d="M414,113.1C403,48.2,346.5,0,280,0c-60.2,0-112.6,39.2-129.9,96.3c-2-0.2-4.1-0.3-6.1-0.3
				c-24,0-46.6,12.2-59.9,32.1C37.4,130.1,0,168.8,0,216c0,48.5,39.5,88,88,88h312c52.9,0,96-43.1,96-96
				C496,160.4,460.5,119.9,414,113.1z M400,288H88c-39.7,0-72-32.3-72-72s32.3-72,71.7-72l5.5,0l2.3-4c10-17.3,28.6-28,48.5-28
				c3.4,0,6.9,0.3,10.4,1l7.4,1.4l1.8-7.3C177,53.4,224.8,16,280,16c60.5,0,111.7,45.3,119,105.3l0.6,4.6c0.3,3.3,0.4,6.7,0.4,10.1
				c0,66.2-53.8,120-120,120v16c75,0,136-61,136-136c0-2.1-0.2-4.2-0.3-6.3c36.7,7.4,64.3,40.1,64.3,78.3
				C480,252.1,444.1,288,400,288z"/>
			<path class="st0" d="M128,384v-1.4c0-5.8-1.6-11.5-4.6-16.5L96,320.4l-27.4,45.7c-3,5-4.6,10.7-4.6,16.5v1.4
				c0,17.6,14.4,32,32,32S128,401.6,128,384z M112,384c0,8.8-7.2,16-16,16s-16-7.2-16-16v-1.4c0-2.9,0.8-5.7,2.3-8.2L96,351.6
				l13.7,22.9c1.5,2.5,2.3,5.3,2.3,8.2V384z"/>
			<path class="st0" d="M176,320.4l-27.4,45.7c-3,5-4.6,10.7-4.6,16.5v1.4c0,17.6,14.4,32,32,32s32-14.4,32-32v-1.4
				c0-5.8-1.6-11.5-4.6-16.5L176,320.4z M192,384c0,8.8-7.2,16-16,16s-16-7.2-16-16v-1.4c0-2.9,0.8-5.7,2.3-8.2l13.7-22.9l13.7,22.9
				c1.5,2.5,2.3,5.3,2.3,8.2V384z"/>
			<path class="st0" d="M368,384v-1.4c0-5.8-1.6-11.5-4.6-16.5L336,320.4l-27.4,45.7c-3,5-4.6,10.7-4.6,16.5v1.4
				c0,17.6,14.4,32,32,32S368,401.6,368,384z M352,384c0,8.8-7.2,16-16,16s-16-7.2-16-16v-1.4c0-2.9,0.8-5.7,2.3-8.2l13.7-22.9
				l13.7,22.9c1.5,2.5,2.3,5.3,2.3,8.2V384z"/>
			<path class="st0" d="M416,320.4l-27.4,45.7c-3,5-4.6,10.7-4.6,16.5v1.4c0,17.6,14.4,32,32,32s32-14.4,32-32v-1.4
				c0-5.8-1.6-11.5-4.6-16.5L416,320.4z M432,384c0,8.8-7.2,16-16,16s-16-7.2-16-16v-1.4c0-2.9,0.8-5.7,2.3-8.2l13.7-22.9l13.7,22.9
				c1.5,2.5,2.3,5.3,2.3,8.2V384z"/>
			<path class="st0" d="M56,400.4l-27.4,45.7c-3,5-4.6,10.7-4.6,16.5v1.4c0,17.6,14.4,32,32,32s32-14.4,32-32v-1.4
				c0-5.8-1.6-11.5-4.6-16.5L56,400.4z M72,464c0,8.8-7.2,16-16,16s-16-7.2-16-16v-1.4c0-2.9,0.8-5.7,2.3-8.2L56,431.6l13.7,22.9
				c1.5,2.5,2.3,5.3,2.3,8.2V464z"/>
			<path class="st0" d="M136,400.4l-27.4,45.7c-3,5-4.6,10.7-4.6,16.5v1.4c0,17.6,14.4,32,32,32s32-14.4,32-32v-1.4
				c0-5.8-1.6-11.5-4.6-16.5L136,400.4z M152,464c0,8.8-7.2,16-16,16s-16-7.2-16-16v-1.4c0-2.9,0.8-5.7,2.3-8.2l13.7-22.9l13.7,22.9
				c1.5,2.5,2.3,5.3,2.3,8.2V464z"/>
			<path class="st0" d="M296,400.4l-27.4,45.7c-3,5-4.6,10.7-4.6,16.5v1.4c0,17.6,14.4,32,32,32s32-14.4,32-32v-1.4
				c0-5.8-1.6-11.5-4.6-16.5L296,400.4z M312,464c0,8.8-7.2,16-16,16s-16-7.2-16-16v-1.4c0-2.9,0.8-5.7,2.3-8.2l13.7-22.9l13.7,22.9
				c1.5,2.5,2.3,5.3,2.3,8.2V464z"/>
			<path class="st0" d="M376,400.4l-27.4,45.7c-3,5-4.6,10.7-4.6,16.5v1.4c0,17.6,14.4,32,32,32s32-14.4,32-32v-1.4
				c0-5.8-1.6-11.5-4.6-16.5L376,400.4z M392,464c0,8.8-7.2,16-16,16s-16-7.2-16-16v-1.4c0-2.9,0.8-5.7,2.3-8.2l13.7-22.9l13.7,22.9
				c1.5,2.5,2.3,5.3,2.3,8.2V464z"/>
			<polygon class="st0" points="238.1,392 278.9,324.1 265.1,315.9 209.9,408 257.4,408 209.2,483.7 222.8,492.3 286.6,392 			"/>
		</g>
	</g>
</g>
</svg>
