<?xml version="1.0" encoding="utf-8"?>
<!-- Generator: Adobe Illustrator 19.2.0, SVG Export Plug-In . SVG Version: 6.00 Build 0)  -->
<svg version="1.1" id="Layer_1" xmlns="http://www.w3.org/2000/svg" xmlns:xlink="http://www.w3.org/1999/xlink" x="0px" y="0px"
	 viewBox="0 0 496 496" style="enable-background:new 0 0 496 496;" xml:space="preserve">
<style type="text/css">
	.st0{fill:#FFFFFF;}
</style>
<g>
	<g>
		<g>
			<g>
				<path class="st0" d="M414,113.1C403,48.2,346.5,0,280,0c-60.2,0-112.6,39.2-130,96.3c-26.7-2.3-51.5,10.3-65.9,31.8
					C37.4,130.1,0,168.8,0,216c0,48.5,39.5,88,88,88h312c52.9,0,96-43.1,96-96C496,160.4,460.5,119.9,414,113.1z M400,288H88
					c-39.7,0-72-32.3-72-72s32.3-72,71.7-72l5.5,0l2.3-4c10-17.3,28.6-28,48.5-28c3.4,0,6.9,0.3,10.4,1l7.4,1.4l1.8-7.3
					C177,53.4,224.8,16,280,16c60.5,0,111.7,45.3,119,105.3l0.6,4.6c0.3,3.3,0.4,6.7,0.4,10.1c0,66.2-53.8,120-120,120v16
					c75,0,136-61,136-136c0-2.1-0.2-4.2-0.3-6.3c36.7,7.4,64.3,40.1,64.3,78.3C480,252.1,444.1,288,400,288z"/>
				<polygon class="st0" points="343.9,328.8 323.4,339.1 323.4,320 307.4,320 307.4,339.1 287,328.8 279.9,343.2 297.5,352 
					279.9,360.8 287,375.2 307.4,364.9 307.4,384 323.4,384 323.4,364.9 343.9,375.2 351,360.8 333.3,352 351,343.2 				"/>
				<polygon class="st0" points="304.7,408.8 284.3,419.1 284.3,400 268.3,400 268.3,419.1 247.9,408.8 240.7,423.2 258.4,432 
					240.7,440.8 247.9,455.2 268.3,444.9 268.3,464 284.3,464 284.3,444.9 304.7,455.2 311.9,440.8 294.2,432 311.9,423.2 				"/>
				<polygon class="st0" points="401.7,408.8 381.3,419.1 381.3,400 365.3,400 365.3,419.1 344.8,408.8 337.7,423.2 355.4,432 
					337.7,440.8 344.8,455.2 365.3,444.9 365.3,464 381.3,464 381.3,444.9 401.7,455.2 408.8,440.8 391.2,432 408.8,423.2 				"/>
				<polygon class="st0" points="437.3,328.8 416.8,339.1 416.8,320 400.8,320 400.8,339.1 380.4,328.8 373.3,343.2 391,352 
					373.3,360.8 380.4,375.2 400.8,364.9 400.8,384 416.8,384 416.8,364.9 437.3,375.2 444.4,360.8 426.7,352 444.4,343.2 				"/>
			</g>
		</g>
	</g>
	<g>
		
			<rect x="90.4" y="331.6" transform="matrix(0.4472 -0.8944 0.8944 0.4472 -243.8859 284.5533)" class="st0" width="35.8" height="16"/>
		
			<rect x="66.4" y="379.6" transform="matrix(0.4472 -0.8944 0.8944 0.4472 -300.1345 289.6514)" class="st0" width="35.8" height="16"/>
		
			<rect x="42.4" y="427.6" transform="matrix(0.4472 -0.8944 0.8944 0.4472 -356.3156 294.6928)" class="st0" width="35.8" height="16"/>
		
			<rect x="146.4" y="331.6" transform="matrix(0.4472 -0.8944 0.8944 0.4472 -212.9296 334.6432)" class="st0" width="35.8" height="16"/>
		
			<rect x="122.4" y="379.6" transform="matrix(0.4472 -0.8944 0.8944 0.4472 -269.1703 339.7405)" class="st0" width="35.8" height="16"/>
		
			<rect x="98.4" y="427.6" transform="matrix(0.4472 -0.8944 0.8944 0.4472 -325.3467 344.7895)" class="st0" width="35.8" height="16"/>
		
			<rect x="202.4" y="331.6" transform="matrix(0.4472 -0.8944 0.8944 0.4472 -181.9639 384.7286)" class="st0" width="35.8" height="16"/>
		
			<rect x="178.4" y="379.6" transform="matrix(0.4472 -0.8944 0.8944 0.4472 -238.1967 389.814)" class="st0" width="35.8" height="16"/>
		
			<rect x="154.4" y="427.6" transform="matrix(0.4472 -0.8944 0.8944 0.4472 -294.3875 394.8712)" class="st0" width="35.8" height="16"/>
	</g>
</g>
</svg>
